<svg width="210" height="77" viewBox="0 0 210 77" fill="none" xmlns="http://www.w3.org/2000/svg">
<rect width="210" height="77" rx="12" fill="#042028"/>
<path d="M83.096 45.336V48H72.932V30.648H76.16V45.336H83.096ZM101.339 39.324C101.339 40.596 101.127 41.776 100.703 42.864C100.287 43.944 99.6954 44.88 98.9274 45.672C98.1594 46.464 97.2354 47.084 96.1554 47.532C95.0754 47.972 93.8754 48.192 92.5554 48.192C91.2434 48.192 90.0474 47.972 88.9674 47.532C87.8874 47.084 86.9594 46.464 86.1834 45.672C85.4154 44.88 84.8194 43.944 84.3954 42.864C83.9714 41.776 83.7594 40.596 83.7594 39.324C83.7594 38.052 83.9714 36.876 84.3954 35.796C84.8194 34.708 85.4154 33.768 86.1834 32.976C86.9594 32.184 87.8874 31.568 88.9674 31.128C90.0474 30.68 91.2434 30.456 92.5554 30.456C93.4354 30.456 94.2634 30.56 95.0394 30.768C95.8154 30.968 96.5274 31.256 97.1754 31.632C97.8234 32 98.4034 32.452 98.9154 32.988C99.4354 33.516 99.8754 34.108 100.235 34.764C100.595 35.42 100.867 36.132 101.051 36.9C101.243 37.668 101.339 38.476 101.339 39.324ZM98.0394 39.324C98.0394 38.372 97.9114 37.52 97.6554 36.768C97.3994 36.008 97.0354 35.364 96.5634 34.836C96.0914 34.308 95.5154 33.904 94.8354 33.624C94.1634 33.344 93.4034 33.204 92.5554 33.204C91.7074 33.204 90.9434 33.344 90.2634 33.624C89.5914 33.904 89.0154 34.308 88.5354 34.836C88.0634 35.364 87.6994 36.008 87.4434 36.768C87.1874 37.52 87.0594 38.372 87.0594 39.324C87.0594 40.276 87.1874 41.132 87.4434 41.892C87.6994 42.644 88.0634 43.284 88.5354 43.812C89.0154 44.332 89.5914 44.732 90.2634 45.012C90.9434 45.292 91.7074 45.432 92.5554 45.432C93.4034 45.432 94.1634 45.292 94.8354 45.012C95.5154 44.732 96.0914 44.332 96.5634 43.812C97.0354 43.284 97.3994 42.644 97.6554 41.892C97.9114 41.132 98.0394 40.276 98.0394 39.324ZM118.478 39.3V46.32C117.598 46.968 116.658 47.444 115.658 47.748C114.666 48.044 113.602 48.192 112.466 48.192C111.05 48.192 109.766 47.972 108.614 47.532C107.47 47.092 106.49 46.48 105.674 45.696C104.866 44.912 104.242 43.976 103.802 42.888C103.362 41.8 103.142 40.612 103.142 39.324C103.142 38.02 103.354 36.824 103.778 35.736C104.202 34.648 104.802 33.712 105.578 32.928C106.362 32.144 107.31 31.536 108.422 31.104C109.534 30.672 110.782 30.456 112.166 30.456C112.87 30.456 113.526 30.512 114.134 30.624C114.75 30.736 115.318 30.892 115.838 31.092C116.366 31.284 116.846 31.52 117.278 31.8C117.71 32.08 118.106 32.388 118.466 32.724L117.542 34.188C117.398 34.42 117.21 34.564 116.978 34.62C116.746 34.668 116.494 34.608 116.222 34.44C115.958 34.288 115.694 34.136 115.43 33.984C115.166 33.832 114.87 33.7 114.542 33.588C114.222 33.476 113.858 33.384 113.45 33.312C113.05 33.24 112.586 33.204 112.058 33.204C111.202 33.204 110.426 33.348 109.73 33.636C109.042 33.924 108.454 34.336 107.966 34.872C107.478 35.408 107.102 36.052 106.838 36.804C106.574 37.556 106.442 38.396 106.442 39.324C106.442 40.316 106.582 41.204 106.862 41.988C107.15 42.764 107.55 43.424 108.062 43.968C108.582 44.504 109.206 44.916 109.934 45.204C110.662 45.484 111.474 45.624 112.37 45.624C113.01 45.624 113.582 45.556 114.086 45.42C114.59 45.284 115.082 45.1 115.562 44.868V41.724H113.378C113.17 41.724 113.006 41.668 112.886 41.556C112.774 41.436 112.718 41.292 112.718 41.124V39.3H118.478ZM138.136 39.324C138.136 40.596 137.924 41.776 137.5 42.864C137.084 43.944 136.492 44.88 135.724 45.672C134.956 46.464 134.032 47.084 132.952 47.532C131.872 47.972 130.672 48.192 129.352 48.192C128.04 48.192 126.844 47.972 125.764 47.532C124.684 47.084 123.756 46.464 122.98 45.672C122.212 44.88 121.616 43.944 121.192 42.864C120.768 41.776 120.556 40.596 120.556 39.324C120.556 38.052 120.768 36.876 121.192 35.796C121.616 34.708 122.212 33.768 122.98 32.976C123.756 32.184 124.684 31.568 125.764 31.128C126.844 30.68 128.04 30.456 129.352 30.456C130.232 30.456 131.06 30.56 131.836 30.768C132.612 30.968 133.324 31.256 133.972 31.632C134.62 32 135.2 32.452 135.712 32.988C136.232 33.516 136.672 34.108 137.032 34.764C137.392 35.42 137.664 36.132 137.848 36.9C138.04 37.668 138.136 38.476 138.136 39.324ZM134.836 39.324C134.836 38.372 134.708 37.52 134.452 36.768C134.196 36.008 133.832 35.364 133.36 34.836C132.888 34.308 132.312 33.904 131.632 33.624C130.96 33.344 130.2 33.204 129.352 33.204C128.504 33.204 127.74 33.344 127.06 33.624C126.388 33.904 125.812 34.308 125.332 34.836C124.86 35.364 124.496 36.008 124.24 36.768C123.984 37.52 123.856 38.372 123.856 39.324C123.856 40.276 123.984 41.132 124.24 41.892C124.496 42.644 124.86 43.284 125.332 43.812C125.812 44.332 126.388 44.732 127.06 45.012C127.74 45.292 128.504 45.432 129.352 45.432C130.2 45.432 130.96 45.292 131.632 45.012C132.312 44.732 132.888 44.332 133.36 43.812C133.832 43.284 134.196 42.644 134.452 41.892C134.708 41.132 134.836 40.276 134.836 39.324Z" fill="white"/>
</svg>
